<?xml version="1.0" encoding="UTF-8" standalone="no"?>
<svg
   xmlns:dc="http://purl.org/dc/elements/1.1/"
   xmlns:cc="http://creativecommons.org/ns#"
   xmlns:rdf="http://www.w3.org/1999/02/22-rdf-syntax-ns#"
   xmlns:svg="http://www.w3.org/2000/svg"
   xmlns="http://www.w3.org/2000/svg"
   viewBox="0 0 612 541.37335"
   height="541.37335"
   width="612"
   xml:space="preserve"
   id="svg2"
   version="1.1"><metadata
     id="metadata8"><rdf:RDF><cc:Work
         rdf:about=""><dc:format>image/svg+xml</dc:format><dc:type
           rdf:resource="http://purl.org/dc/dcmitype/StillImage" /></cc:Work></rdf:RDF></metadata><defs
     id="defs6" /><g
     transform="matrix(1.3333333,0,0,-1.3333333,0,541.37333)"
     id="g10"><g
       transform="scale(0.1)"
       id="g12"><path
         id="path14"
         style="fill:#faf9f9;fill-opacity:1;fill-rule:nonzero;stroke:none"
         d="m 3917.81,293.988 c -896.27,-391.9763 -2349.35,-391.9763 -3245.603,0 -896.273,391.883 -896.273,1027.382 0,1419.372 896.253,391.88 2349.333,391.88 3245.603,0 896.25,-391.99 896.25,-1027.489 0,-1419.372" /><path
         id="path16"
         style="fill:#e7e7e5;fill-opacity:1;fill-rule:nonzero;stroke:none"
         d="m 4142.52,837.961 c -191.99,-91.512 -503.26,-91.512 -695.25,0 -192,91.488 -192,239.859 0,331.369 191.99,91.5 503.26,91.5 695.25,0 191.99,-91.51 191.99,-239.881 0,-331.369" /><path
         id="path18"
         style="fill:#5fc8ab;fill-opacity:1;fill-rule:nonzero;stroke:none"
         d="m 741.547,1260.8 c 0,0 9.551,191.74 -85.555,327.04 -95.117,135.3 -215.383,138.06 -263.453,118.81 -48.07,-19.25 -84.867,-83.35 -10.234,-138.41 74.64,-55.05 233.886,-166.04 254.031,-254.08 l 105.211,-53.36" /><path
         id="path20"
         style="fill:#4ac19d;fill-opacity:1;fill-rule:nonzero;stroke:none"
         d="m 698.352,1282.71 -62.016,31.45 c -20.145,88.04 -179.391,199.03 -254.031,254.08 -30.684,22.64 -42.535,46.8 -42.508,68.75 0.039,31.44 24.433,58.33 52.742,69.66 12.656,5.07 30.309,8.61 51.199,8.61 58.45,0 142.18,-27.75 212.254,-127.42 17.387,-24.73 31.27,-51.34 42.36,-78.33 v -226.8" /><path
         id="path22"
         style="fill:#ffffff;fill-opacity:1;fill-rule:nonzero;stroke:none"
         d="m 706.605,1298.91 c -2.328,0 -4.414,1.64 -4.894,4.01 -53.027,261.55 -207.898,334.77 -272.023,354.1 -2.641,0.8 -4.141,3.59 -3.34,6.23 0.793,2.64 3.578,4.13 6.23,3.34 65.844,-19.85 224.828,-94.84 278.938,-361.69 0.547,-2.7 -1.203,-5.34 -3.914,-5.89 l -0.997,-0.1" /><path
         id="path24"
         style="fill:#5fc8ab;fill-opacity:1;fill-rule:nonzero;stroke:none"
         d="m 652.34,1371.39 c -21.18,63.28 -48.899,93.32 -137.067,86.67 -88.168,-6.66 -75.132,-5.59 -179.343,31.27 -104.215,36.85 -182.016,-0.25 -193.512,-40.56 -12.5,-43.8 72.738,-71.32 135.031,-106.17 62.301,-34.85 103.508,-75.8 82.723,-132.85 -17.805,-48.88 -13.285,-92.02 62.273,-117.24 67.133,-22.41 143.918,10.62 166.266,-57.58 12.738,-38.879 73.102,-85.52 135.305,-56 111.261,93.37 93.933,221.01 35.918,309.35 -25.543,38.89 -94.871,45.09 -107.594,83.11" /><path
         id="path26"
         style="fill:#ffffff;fill-opacity:1;fill-rule:nonzero;stroke:none"
         d="m 714.199,1088.69 c -2.066,0 -3.996,1.28 -4.715,3.34 -65.578,186.83 -374.507,348.88 -487.367,367.26 -2.722,0.45 -4.574,3.02 -4.129,5.74 0.446,2.73 2.992,4.58 5.742,4.14 114.594,-18.68 428.411,-183.57 495.188,-373.83 0.918,-2.6 -0.457,-5.46 -3.063,-6.37 l -1.656,-0.28" /><path
         id="path28"
         style="fill:#ffffff;fill-opacity:1;fill-rule:nonzero;stroke:none"
         d="m 437.211,1190.24 c -1.496,0 -2.977,0.67 -3.965,1.95 -1.683,2.19 -1.277,5.32 0.906,7.01 2.782,2.14 69.301,52.61 170.278,55.09 2.777,-0.13 5.054,-2.12 5.121,-4.88 0.066,-2.75 -2.113,-5.05 -4.879,-5.12 -97.563,-2.4 -163.754,-52.5 -164.414,-53.01 -0.906,-0.7 -1.981,-1.04 -3.047,-1.04" /><path
         id="path30"
         style="fill:#ececea;fill-opacity:1;fill-rule:nonzero;stroke:none"
         d="M 2642.34,3959.36 V 2138.97 L 793.137,1071.32 l 41.711,-85.41 1807.492,1043.54 80.84,-7.5 v 1929.56 l -80.84,7.85" /><path
         id="path32"
         style="fill:#ececea;fill-opacity:1;fill-rule:nonzero;stroke:none"
         d="m 2270.75,2957.25 15.09,21.07 -95.58,55.23 -0.66,0.38 -0.04,-0.06 c -14.29,8.06 -33.06,4.11 -42.48,-10.4 l -263.39,-405.52 -272.9,236.35 11.28,16.92 -94.59,54.64 -0.09,-0.12 c -14.34,8.73 -33.48,5.01 -43.14,-9.49 l -691.078,-1037.41 0.051,-742.72 94.789,-54.77 1706.888,1040.24 0.01,523.74 -324.16,311.92" /><path
         id="path34"
         style="fill:#faf9f9;fill-opacity:1;fill-rule:nonzero;stroke:none"
         d="m 888.012,1081.35 -0.016,742.74 691.084,1037.4 c 10.68,16.03 33,19.06 47.56,6.45 l 351.88,-304.74 263.39,405.52 c 10.94,16.85 34.53,19.55 49,5.62 l 398.84,-383.76 v -437.64 c 0,-19.4 -10.35,-37.34 -27.17,-47.04 L 888.012,1081.35" /><path
         id="path36"
         style="fill:#ececea;fill-opacity:1;fill-rule:nonzero;stroke:none"
         d="m 1978.52,2563.2 142.25,-123.19 -124.47,150.56 z" /><path
         id="path38"
         style="fill:#ffffff;fill-opacity:1;fill-rule:nonzero;stroke:none"
         d="m 2723.17,2105.87 c 0,-16.11 -11.31,-35.72 -25.33,-43.77 L 1365,1296.45 865.855,1004.19 c -13.89,-8.049 -25.214,-1.51 -25.214,14.6 v 1789.02 c 0,8.06 2.8,16.93 7.351,24.87 4.551,7.94 10.856,14.94 17.863,18.91 l 1831.985,1057.9 c 14.02,8.17 25.33,1.64 25.33,-14.59 V 2105.87 m 61.16,1883.14 c -0.12,1.05 -0.36,2.22 -0.59,3.15 -2.57,14.36 -12.61,29.65 -24.39,36.54 l -44.36,25.56 c -13.9,8.06 -36.53,8.06 -50.55,0 L 723.684,2933.76 c -7.004,-4.09 -13.309,-10.97 -17.977,-18.91 -4.551,-7.94 -7.355,-16.81 -7.355,-24.86 V 977.332 c 0,-16.102 11.328,-35.711 25.332,-43.762 L 767.922,908 c 12.137,-7 30.93,-7.941 44.707,-2.68 l 1.75,0.7 c 1.281,0.46 2.687,1.16 4.082,1.98 l 561.559,324.14 1379.33,796.36 c 13.88,8.05 25.21,27.66 25.21,43.77 v 1912.65 c 0,1.4 -0.12,2.81 -0.23,4.09" /><path
         id="path40"
         style="fill:#ececea;fill-opacity:1;fill-rule:nonzero;stroke:none"
         d="m 818.461,908 c -1.395,-0.82 -2.801,-1.52 -4.082,-1.98 l -1.75,-0.7 C 798.852,900.059 780.059,901 767.922,908 l -44.238,25.559 c -14.004,8.062 -25.332,27.671 -25.332,43.773 V 2889.99 c 0,8.05 2.804,16.92 7.355,24.86 27.781,-15.99 59.879,-34.55 94.781,-54.74 15.407,-8.87 31.285,-17.98 47.504,-27.43 -4.551,-7.94 -7.351,-16.81 -7.351,-24.87 V 1018.78 c 0,-16.1 11.324,-22.639 25.214,-14.59 L 818.461,908" /><path
         id="path42"
         style="fill:#faf9f9;fill-opacity:1;fill-rule:nonzero;stroke:none"
         d="m 2723.17,2105.87 c 0,-16.11 -11.31,-35.72 -25.33,-43.77 L 865.855,1004.19 c -13.89,-8.049 -25.214,-1.51 -25.214,14.6 v 1789.02 c 0,8.06 2.8,16.93 7.351,24.87 4.551,7.94 10.856,14.94 17.863,18.91 l 1831.985,1057.9 c 14.02,8.17 25.33,1.64 25.33,-14.59 V 2105.87 m 61.16,1883.14 c -0.12,1.05 -0.36,2.22 -0.59,3.15 -3.04,10.62 -12.84,14.13 -24.39,7.36 L 818.461,2878.9 c -7,-3.97 -13.305,-10.97 -17.973,-18.79 -4.554,-7.94 -7.351,-16.93 -7.351,-24.98 l 0.117,-1912.54 c 0,-13.77 8.285,-20.539 19.375,-17.27 l 1.75,0.7 c 1.281,0.46 2.687,1.16 4.082,1.98 L 2759.35,2028.5 c 13.88,8.05 25.21,27.66 25.21,43.77 v 1912.65 c 0,1.4 -0.12,2.81 -0.23,4.09" /><path
         id="path44"
         style="fill:#ececea;fill-opacity:1;fill-rule:nonzero;stroke:none"
         d="m 2445.68,3419.47 47.95,81.37 -82.06,47.82 -0.03,0.02 -0.07,0.03 v 0 c -24.04,13.83 -57.24,11.82 -93.9,-9.35 -73.41,-42.39 -132.93,-145.46 -132.93,-230.23 0,-41.8 14.52,-71.27 37.99,-85.4 l -0.04,-0.06 0.74,-0.42 0.5,-0.3 79.01,-45.94 45.75,77.66 c 47.13,40.25 84.41,103.71 97.09,164.8" /><path
         id="path46"
         style="fill:#faf9f9;fill-opacity:1;fill-rule:nonzero;stroke:none"
         d="m 2398.1,3492.5 c 73.4,42.38 132.93,8.02 132.93,-76.75 0,-84.76 -59.52,-187.84 -132.93,-230.23 -73.41,-42.38 -132.92,-8.02 -132.92,76.75 0,84.77 59.51,187.84 132.92,230.23" /><path
         id="path48"
         style="fill:#e7e7e5;fill-opacity:1;fill-rule:nonzero;stroke:none"
         d="M 2872.34,3829.36 V 2008.97 l -1849.2,-1067.65 41.71,-85.41 1807.49,1043.54 80.84,-7.5 v 1929.57 l -80.84,7.84" /><path
         id="path50"
         style="fill:#e7e7e5;fill-opacity:1;fill-rule:nonzero;stroke:none"
         d="m 2500.74,2827.25 15.11,21.07 -95.59,55.22 -0.66,0.39 -0.04,-0.06 c -14.29,8.06 -33.06,4.11 -42.48,-10.4 l -263.39,-405.52 -272.9,236.35 11.28,16.92 -94.59,54.64 -0.09,-0.12 c -14.34,8.73 -33.48,5.01 -43.14,-9.49 l -691.08,-1037.41 0.05,-742.72 94.79,-54.768 1706.89,1040.238 0.01,523.74 -324.17,311.92" /><path
         id="path52"
         style="fill:#f2f2f0;fill-opacity:1;fill-rule:nonzero;stroke:none"
         d="m 1118.01,951.352 -0.01,742.738 691.08,1037.4 c 10.68,16.03 33.01,19.06 47.56,6.45 l 351.88,-304.74 263.38,405.52 c 10.95,16.85 34.54,19.55 49.01,5.62 l 398.84,-383.76 v -437.63 c 0,-19.41 -10.36,-37.35 -27.17,-47.05 L 1118.01,951.352" /><path
         id="path54"
         style="fill:#e7e7e5;fill-opacity:1;fill-rule:nonzero;stroke:none"
         d="m 2208.52,2433.2 142.25,-123.18 -124.47,150.55 -17.78,-27.37" /><path
         id="path56"
         style="fill:#faf9f9;fill-opacity:1;fill-rule:nonzero;stroke:none"
         d="m 2953.17,1975.87 c 0,-16.11 -11.31,-35.72 -25.33,-43.77 L 1595,1166.45 1095.86,874.191 c -13.9,-8.05 -25.22,-1.511 -25.22,14.59 V 2677.81 c 0,8.06 2.8,16.93 7.35,24.87 4.55,7.94 10.86,14.94 17.87,18.91 l 1831.98,1057.9 c 14.02,8.17 25.33,1.64 25.33,-14.59 V 1975.87 m 61.16,1883.14 c -0.12,1.05 -0.36,2.22 -0.59,3.15 -2.57,14.36 -12.61,29.65 -24.39,36.54 l -44.36,25.56 c -13.9,8.05 -36.53,8.05 -50.55,0 L 953.684,2803.76 c -7.004,-4.09 -13.309,-10.97 -17.973,-18.91 -4.555,-7.94 -7.359,-16.81 -7.359,-24.86 V 847.332 c 0,-16.102 11.328,-35.711 25.332,-43.773 L 997.922,778 c 12.138,-7 30.928,-7.941 44.708,-2.68 l 1.75,0.7 c 1.28,0.46 2.69,1.16 4.08,1.98 l 561.56,324.14 1379.33,796.36 c 13.88,8.05 25.21,27.66 25.21,43.77 v 1912.65 c 0,1.4 -0.12,2.81 -0.23,4.09" /><path
         id="path58"
         style="fill:#ececea;fill-opacity:1;fill-rule:nonzero;stroke:none"
         d="m 1048.46,778 c -1.39,-0.82 -2.8,-1.52 -4.08,-1.98 l -1.75,-0.7 c -13.78,-5.261 -32.57,-4.32 -44.708,2.68 l -44.238,25.559 c -14.004,8.062 -25.332,27.671 -25.332,43.773 V 2759.99 c 0,8.05 2.804,16.92 7.355,24.86 27.781,-15.99 59.879,-34.55 94.783,-54.74 15.4,-8.87 31.28,-17.98 47.5,-27.43 -4.55,-7.94 -7.35,-16.81 -7.35,-24.87 V 888.781 c 0,-16.101 11.32,-22.64 25.21,-14.59 L 1048.46,778" /><path
         id="path60"
         style="fill:#f2f2f0;fill-opacity:1;fill-rule:nonzero;stroke:none"
         d="m 2953.17,1975.87 c 0,-16.11 -11.31,-35.72 -25.33,-43.77 L 1095.86,874.191 c -13.9,-8.05 -25.22,-1.511 -25.22,14.59 V 2677.81 c 0,8.06 2.8,16.93 7.35,24.87 4.55,7.94 10.86,14.94 17.87,18.91 l 1831.98,1057.9 c 14.02,8.17 25.33,1.64 25.33,-14.59 V 1975.87 m 61.16,1883.14 c -0.12,1.05 -0.36,2.22 -0.59,3.15 -3.04,10.62 -12.84,14.13 -24.39,7.36 L 1048.46,2748.9 c -7,-3.97 -13.3,-10.98 -17.97,-18.79 -4.56,-7.94 -7.35,-16.93 -7.35,-24.98 l 0.11,-1912.54 c 0,-13.77 8.29,-20.539 19.38,-17.27 l 1.75,0.7 c 1.28,0.46 2.69,1.16 4.08,1.98 l 1940.89,1120.5 c 13.88,8.05 25.21,27.66 25.21,43.77 v 1912.65 c 0,1.4 -0.12,2.81 -0.23,4.09" /><path
         id="path62"
         style="fill:#e7e7e5;fill-opacity:1;fill-rule:nonzero;stroke:none"
         d="m 2675.68,3289.47 47.95,81.37 -82.06,47.82 -0.03,0.02 -0.07,0.03 v 0 c -24.04,13.83 -57.24,11.82 -93.9,-9.35 -73.41,-42.39 -132.92,-145.46 -132.92,-230.23 0,-41.8 14.51,-71.27 37.98,-85.4 l -0.04,-0.06 0.74,-0.42 0.51,-0.3 79,-45.94 45.75,77.66 c 47.13,40.25 84.41,103.71 97.09,164.8" /><path
         id="path64"
         style="fill:#f2f2f0;fill-opacity:1;fill-rule:nonzero;stroke:none"
         d="m 2628.1,3362.5 c 73.4,42.38 132.93,8.02 132.93,-76.75 0,-84.76 -59.52,-187.84 -132.93,-230.23 -73.41,-42.38 -132.92,-8.02 -132.92,76.75 0,84.77 59.51,187.84 132.92,230.23" /><path
         id="path66"
         style="fill:#d9dad7;fill-opacity:1;fill-rule:nonzero;stroke:none"
         d="M 3102.34,3699.37 V 1878.96 L 1253.13,811.32 l 41.72,-85.41 1807.49,1043.54 80.84,-7.5 v 1929.57 l -80.84,7.85" /><path
         id="path68"
         style="fill:#e1e1df;fill-opacity:1;fill-rule:nonzero;stroke:none"
         d="m 2730.74,2697.25 15.11,21.07 -95.59,55.23 -0.66,0.38 -0.04,-0.06 c -14.29,8.06 -33.06,4.11 -42.48,-10.4 l -263.39,-405.52 -272.9,236.35 11.28,16.92 -94.59,54.64 -0.09,-0.12 c -14.34,8.73 -33.48,5.01 -43.14,-9.49 l -691.08,-1037.41 0.05,-742.719 94.79,-54.769 1706.89,1040.238 0.01,523.74 -324.17,311.92" /><path
         id="path70"
         style="fill:#e7e7e5;fill-opacity:1;fill-rule:nonzero;stroke:none"
         d="m 1348.01,821.352 -0.01,742.738 691.08,1037.4 c 10.68,16.04 33,19.06 47.56,6.45 l 351.89,-304.74 263.37,405.52 c 10.95,16.85 34.54,19.55 49.01,5.62 l 398.84,-383.76 v -437.64 c 0,-19.4 -10.36,-37.34 -27.17,-47.04 L 1348.01,821.352" /><path
         id="path72"
         style="fill:#e1e1df;fill-opacity:1;fill-rule:nonzero;stroke:none"
         d="m 2438.53,2303.2 142.24,-123.19 -124.47,150.56 -17.77,-27.37" /><path
         id="path74"
         style="fill:#ececea;fill-opacity:1;fill-rule:nonzero;stroke:none"
         d="m 3183.17,1845.87 c 0,-16.11 -11.31,-35.72 -25.33,-43.77 L 1825,1036.45 1325.85,744.199 c -13.89,-8.058 -25.21,-1.519 -25.21,14.582 V 2547.81 c 0,8.06 2.8,16.93 7.35,24.87 4.55,7.94 10.86,14.94 17.86,18.91 l 1831.99,1057.9 c 14.02,8.17 25.33,1.64 25.33,-14.59 V 1845.87 m 61.16,1883.14 c -0.12,1.05 -0.36,2.22 -0.59,3.15 -2.57,14.36 -12.61,29.65 -24.39,36.54 l -44.36,25.56 c -13.9,8.06 -36.53,8.06 -50.55,0 L 1183.68,2673.76 c -7,-4.09 -13.3,-10.97 -17.97,-18.91 -4.55,-7.94 -7.36,-16.81 -7.36,-24.86 V 717.332 c 0,-16.102 11.33,-35.711 25.33,-43.773 L 1227.92,648 c 12.14,-7 30.93,-7.941 44.71,-2.68 l 1.75,0.7 c 1.28,0.468 2.69,1.16 4.08,1.98 l 561.56,324.141 1379.33,796.359 c 13.88,8.05 25.21,27.66 25.21,43.77 v 1912.65 c 0,1.4 -0.12,2.81 -0.23,4.09" /><path
         id="path76"
         style="fill:#d9dad7;fill-opacity:1;fill-rule:nonzero;stroke:none"
         d="m 1278.46,648 c -1.39,-0.82 -2.8,-1.52 -4.08,-1.98 l -1.75,-0.7 c -13.78,-5.261 -32.57,-4.32 -44.71,2.68 l -44.24,25.559 c -14,8.062 -25.33,27.671 -25.33,43.773 V 2629.99 c 0,8.05 2.81,16.92 7.36,24.86 27.78,-15.99 59.88,-34.55 94.78,-54.74 15.4,-8.87 31.28,-17.98 47.5,-27.43 -4.55,-7.94 -7.35,-16.81 -7.35,-24.87 V 758.781 c 0,-16.101 11.32,-22.64 25.21,-14.59 L 1278.46,648" /><path
         id="path78"
         style="fill:#e7e7e5;fill-opacity:1;fill-rule:nonzero;stroke:none"
         d="m 3183.17,1845.87 c 0,-16.11 -11.31,-35.72 -25.33,-43.77 L 1325.85,744.199 c -13.89,-8.058 -25.21,-1.519 -25.21,14.582 V 2547.81 c 0,8.06 2.8,16.93 7.35,24.87 4.55,7.94 10.86,14.94 17.86,18.91 l 1831.99,1057.9 c 14.02,8.17 25.33,1.64 25.33,-14.59 V 1845.87 m 61.16,1883.14 c -0.12,1.05 -0.36,2.22 -0.59,3.15 -3.04,10.63 -12.84,14.13 -24.39,7.36 L 1278.46,2618.9 c -7,-3.97 -13.3,-10.97 -17.97,-18.79 -4.56,-7.94 -7.36,-16.93 -7.36,-24.98 l 0.12,-1912.54 c 0,-13.77 8.29,-20.539 19.38,-17.27 l 1.75,0.7 c 1.28,0.468 2.69,1.16 4.08,1.98 l 1940.89,1120.5 c 13.88,8.05 25.21,27.66 25.21,43.77 v 1912.65 c 0,1.4 -0.12,2.81 -0.23,4.09" /><path
         id="path80"
         style="fill:#e1e1df;fill-opacity:1;fill-rule:nonzero;stroke:none"
         d="m 2905.68,3159.47 47.95,81.37 -82.06,47.82 -0.03,0.02 -0.07,0.03 v 0 c -24.04,13.83 -57.24,11.82 -93.9,-9.35 -73.41,-42.39 -132.92,-145.46 -132.92,-230.23 0,-41.8 14.51,-71.27 37.98,-85.4 l -0.04,-0.06 0.74,-0.42 0.51,-0.3 79,-45.94 45.75,77.66 c 47.13,40.25 84.41,103.71 97.09,164.8" /><path
         id="path82"
         style="fill:#e7e7e5;fill-opacity:1;fill-rule:nonzero;stroke:none"
         d="m 2858.1,3232.5 c 73.4,42.38 132.93,8.02 132.93,-76.75 0,-84.76 -59.52,-187.84 -132.93,-230.23 -73.41,-42.38 -132.92,-8.02 -132.92,76.75 0,84.77 59.51,187.84 132.92,230.23" /><path
         id="path84"
         style="fill:#1f2a31;fill-opacity:1;fill-rule:nonzero;stroke:none"
         d="M 3342.34,3559.37 V 1738.96 l -1849.2,-1067.64 41.71,-85.41 1807.49,1043.54 80.84,-7.5 v 1929.57 l -80.84,7.85" /><path
         id="path86"
         style="fill:#5fc8ab;fill-opacity:1;fill-rule:nonzero;stroke:none"
         d="m 2970.74,2557.25 15.11,21.07 -95.59,55.23 -0.66,0.38 -0.04,-0.06 c -14.29,8.06 -33.06,4.11 -42.48,-10.4 l -263.39,-405.52 -272.91,236.35 11.29,16.92 -94.59,54.64 -0.09,-0.12 c -14.34,8.73 -33.48,5.01 -43.14,-9.49 l -691.08,-1037.41 0.05,-742.719 94.79,-54.769 1706.89,1040.238 0.01,523.74 -324.17,311.92" /><path
         id="path88"
         style="fill:#4ac19d;fill-opacity:1;fill-rule:nonzero;stroke:none"
         d="m 1588.01,681.352 -47.37,27.367 V 1550.1 l 643.61,966.15 c 6.19,9.29 16.27,14.16 26.49,14.16 5.73,0 11.5,-1.53 16.65,-4.67 l 0.09,0.12 92.94,-53.69 c -4.63,2.41 -9.67,3.58 -14.69,3.58 -10.27,0 -20.43,-4.93 -26.65,-14.26 L 1588,1424.09 l 0.01,-742.738 m 1090.51,1481.848 -83.45,72.27 252.01,388 c 6.19,9.54 16.43,14.51 26.77,14.51 5.39,0 10.81,-1.35 15.71,-4.11 l 0.04,0.06 0.66,-0.38 93.07,-53.78 c -4.58,2.36 -9.58,3.51 -14.57,3.51 -10.37,0 -20.65,-5 -26.86,-14.56 l -245.6,-378.15 v 0 l -17.78,-27.37" /><path
         id="path90"
         style="fill:#5fc8ab;fill-opacity:1;fill-rule:nonzero;stroke:none"
         d="m 1588.01,681.352 -0.01,742.738 691.08,1037.4 c 10.68,16.03 33,19.06 47.56,6.45 l 351.88,-304.74 263.38,405.52 c 10.95,16.85 34.54,19.55 49.01,5.62 l 398.84,-383.76 v -437.64 c 0,-19.4 -10.36,-37.34 -27.17,-47.04 L 1588.01,681.352" /><path
         id="path92"
         style="fill:#4ac19d;fill-opacity:1;fill-rule:nonzero;stroke:none"
         d="m 2820.77,2040.01 -142.25,123.19 17.78,27.37 124.47,-150.56" /><path
         id="path94"
         style="fill:#3c515c;fill-opacity:1;fill-rule:nonzero;stroke:none"
         d="m 3423.17,1705.87 c 0,-16.11 -11.31,-35.72 -25.33,-43.77 L 2065,896.449 1565.85,604.199 c -13.89,-8.058 -25.21,-1.519 -25.21,14.582 V 2407.81 c 0,8.06 2.8,16.93 7.35,24.87 4.55,7.94 10.86,14.94 17.86,18.91 l 1831.99,1057.9 c 14.02,8.17 25.33,1.64 25.33,-14.59 V 1705.87 m 61.16,1883.14 c -0.12,1.05 -0.36,2.22 -0.59,3.15 -2.57,14.36 -12.61,29.65 -24.39,36.54 l -44.36,25.56 c -13.9,8.06 -36.53,8.06 -50.55,0 L 1423.68,2533.76 c -7,-4.09 -13.3,-10.97 -17.97,-18.91 -4.55,-7.94 -7.36,-16.81 -7.36,-24.86 V 577.332 c 0,-16.102 11.33,-35.711 25.33,-43.762 L 1467.92,508 c 12.14,-7 30.93,-7.941 44.71,-2.68 l 1.75,0.7 c 1.28,0.468 2.69,1.16 4.08,1.98 l 561.56,324.141 1379.33,796.359 c 13.88,8.05 25.21,27.66 25.21,43.77 v 1912.65 c 0,1.4 -0.12,2.8 -0.23,4.09" /><path
         id="path96"
         style="fill:#1f2a31;fill-opacity:1;fill-rule:nonzero;stroke:none"
         d="m 1518.46,508 c -1.39,-0.82 -2.8,-1.52 -4.08,-1.98 l -1.75,-0.7 c -13.78,-5.261 -32.57,-4.32 -44.71,2.68 l -44.24,25.559 c -14,8.062 -25.33,27.671 -25.33,43.773 V 2489.99 c 0,8.05 2.81,16.92 7.36,24.86 27.78,-15.99 59.88,-34.55 94.78,-54.74 15.4,-8.87 31.28,-17.98 47.5,-27.43 -4.55,-7.94 -7.35,-16.81 -7.35,-24.87 V 618.781 c 0,-16.101 11.32,-22.64 25.21,-14.59 L 1518.46,508" /><path
         id="path98"
         style="fill:#2e3e47;fill-opacity:1;fill-rule:nonzero;stroke:none"
         d="m 3423.17,1705.87 c 0,-16.11 -11.31,-35.72 -25.33,-43.77 L 1565.85,604.199 c -13.89,-8.058 -25.21,-1.519 -25.21,14.582 V 2407.81 c 0,8.06 2.8,16.93 7.35,24.87 4.55,7.94 10.86,14.94 17.86,18.91 l 1831.99,1057.9 c 14.02,8.17 25.33,1.64 25.33,-14.59 V 1705.87 m 61.16,1883.14 c -0.12,1.05 -0.36,2.22 -0.59,3.15 -3.04,10.63 -12.84,14.13 -24.39,7.36 L 1518.46,2478.9 c -7,-3.97 -13.3,-10.97 -17.97,-18.79 -4.56,-7.94 -7.35,-16.93 -7.35,-24.98 l 0.11,-1912.54 c 0,-13.77 8.29,-20.539 19.38,-17.27 l 1.75,0.7 c 1.28,0.468 2.69,1.16 4.08,1.98 l 1940.89,1120.5 c 13.88,8.05 25.21,27.66 25.21,43.77 v 1912.65 c 0,1.4 -0.12,2.8 -0.23,4.09" /><path
         id="path100"
         style="fill:#5fc8ab;fill-opacity:1;fill-rule:nonzero;stroke:none"
         d="m 3145.68,3019.47 47.95,81.37 -82.06,47.82 -0.03,0.02 -0.07,0.03 v 0 c -24.04,13.83 -57.24,11.82 -93.9,-9.35 -73.41,-42.39 -132.92,-145.46 -132.92,-230.23 0,-41.8 14.51,-71.27 37.98,-85.4 l -0.04,-0.06 0.74,-0.42 0.51,-0.3 79,-45.94 45.75,77.66 c 47.13,40.25 84.41,103.7 97.09,164.8" /><path
         id="path102"
         style="fill:#4ac19d;fill-opacity:1;fill-rule:nonzero;stroke:none"
         d="m 3002.84,2777.01 -79,45.94 -0.51,0.3 -0.74,0.42 0.04,0.06 v 0 c -23.47,14.13 -37.98,43.6 -37.98,85.4 0,84.77 59.51,187.84 132.92,230.23 21.33,12.32 41.48,18.15 59.35,18.15 12.84,0 24.5,-3.02 34.55,-8.8 v 0 l 0.07,-0.03 0.03,-0.02 82.06,-47.82 -10.46,-17.75 -37.49,-63.62 c -7.28,-35.06 -22.65,-70.89 -43.34,-102.67 -15.36,-23.6 -33.66,-44.97 -53.75,-62.13 l -45.75,-77.66" /><path
         id="path104"
         style="fill:#5fc8ab;fill-opacity:1;fill-rule:nonzero;stroke:none"
         d="m 3098.1,3092.5 c 73.4,42.38 132.93,8.02 132.93,-76.75 0,-84.76 -59.52,-187.84 -132.93,-230.23 -73.41,-42.38 -132.92,-8.02 -132.92,76.75 0,84.77 59.51,187.84 132.92,230.23" /><path
         id="path106"
         style="fill:#f68c9c;fill-opacity:1;fill-rule:nonzero;stroke:none"
         d="m 3572.68,2728.33 -8.87,-28.1 -79.25,173.28 v -227.24 c 0,0 56.62,-113.55 84.42,-113.56 6.29,0 32.73,-14.1 91.81,146.96 l -88.11,48.66" /><path
         id="path108"
         style="fill:#5fc8ab;fill-opacity:1;fill-rule:nonzero;stroke:none"
         d="m 3677.35,2684.45 c -62.5,-4.94 -113.54,32.74 -113.54,32.74 0,0 22.3,98.14 54.02,179.6 35.84,92.09 76.47,106.19 140,105.1 l -80.48,-317.44" /><path
         id="path110"
         style="fill:#52c3a2;fill-opacity:1;fill-rule:nonzero;stroke:none"
         d="m 3628.41,2689.66 c -37.65,9.24 -64.6,27.53 -64.6,27.53 v 0 c 0,0 22.3,98.14 54.02,179.6 34.64,89 73.75,105.16 133.69,105.16 2.07,0 4.15,-0.02 6.27,-0.05 -68.02,-12.7 -123.77,-69.38 -127.18,-143.41 -0.14,-2.91 -0.2,-5.8 -0.2,-8.65 0,-23.17 -0.86,-86.54 -2,-160.18" /><path
         id="path112"
         style="fill:#f68c9c;fill-opacity:1;fill-rule:nonzero;stroke:none"
         d="m 4043.59,1018.59 h -87.75 v 150.21 h 87.75 v -150.21" /><path
         id="path114"
         style="fill:#f68c9c;fill-opacity:1;fill-rule:nonzero;stroke:none"
         d="m 3739.36,1176.82 -87.7,-3.02 -4.39,158.97 92.09,3.02 v -158.97" /><path
         id="path116"
         style="fill:#2e3e47;fill-opacity:1;fill-rule:nonzero;stroke:none"
         d="m 4043.34,2336.32 c 0,-83.8 -14.81,-571.19 -14.81,-571.19 2.05,-24.11 25.25,-66.98 27.06,-153.83 2.61,-125.94 -8.25,-517.6 -8.25,-517.6 0,0 -42.59,-24.9 -97.69,-1.93 0,0 -77.43,514.61 -93.16,639.28 -13.72,108.8 -37,404.37 -37,404.37 l -47.57,-355.19 c 0,0 16.18,-64.89 10.87,-139.45 -4.1,-57.67 -37.88,-414.72 -37.88,-414.72 0,0 -41.31,-28.02 -101.32,-7.75 0,0 -44.34,509.01 -45.36,561.92 -1.16,60.32 29.18,676.05 29.18,676.05 l 415.93,-119.96" /><path
         id="path118"
         style="fill:#5fc8ab;fill-opacity:1;fill-rule:nonzero;stroke:none"
         d="m 4007.2,2943.13 c 0,0 33.62,-30.63 33.62,-110.24 v -171.93 l 2.52,-324.64 c -125.95,-66.39 -286.06,-70.83 -420.43,27.3 0,0 7.5,417.87 7.5,486.22 0,2.85 0.06,5.74 0.2,8.65 4.52,97.93 100.59,165.48 195.53,141.06 l 79.71,-20.5 79.84,-26.31 21.51,-9.61" /><path
         id="path120"
         style="fill:#1f2a31;fill-opacity:1;fill-rule:nonzero;stroke:none"
         d="m 3880.98,3272.53 c 0,-66.6 -54,-120.59 -120.6,-120.59 -66.6,0 -120.59,53.99 -120.59,120.59 0,66.6 53.99,120.6 120.59,120.6 66.6,0 120.6,-54 120.6,-120.6" /><path
         id="path122"
         style="fill:#1f2a31;fill-opacity:1;fill-rule:nonzero;stroke:none"
         d="m 3968.84,3186.79 c 0,0 -19.54,-91.81 -27.38,-106.9 -7.84,-15.09 -24.03,-19.37 -24.03,-19.37 l 1.37,64.59 50.04,61.68" /><path
         id="path124"
         style="fill:#1f2a31;fill-opacity:1;fill-rule:nonzero;stroke:none"
         d="m 3944.32,3318.31 c 0,0 21.04,3.61 37.45,-13.17 16.08,-16.45 7.1,-67.93 -12.93,-118.35 l -36.81,-4.23 12.29,135.75" /><path
         id="path126"
         style="fill:#f68c9c;fill-opacity:1;fill-rule:nonzero;stroke:none"
         d="m 3920.99,3182.53 c 7.38,-4.41 17.91,9.77 27.01,19.3 9.1,9.52 38.82,22.53 53.64,-8.7 15.11,-31.83 -13.09,-73.89 -36.47,-81.23 -40.33,-12.66 -46.37,13.21 -46.37,13.21 l -2.98,-149.88 c -50.13,-64.26 -189.23,-58.83 -131.27,8.3 l 0.12,44.25 c 0,0 -36.54,-5.54 -54.36,-2.78 -29.65,4.58 -48.3,27.97 -57.29,60.06 -14.45,51.55 -19.93,93.17 -7.68,194.56 13.44,111.11 142.68,112.27 212.47,68.34 69.79,-43.92 43.18,-165.43 43.18,-165.43" /><path
         id="path128"
         style="fill:#1f2a31;fill-opacity:1;fill-rule:nonzero;stroke:none"
         d="m 3920.99,3170.11 c 3.71,-0.07 17.83,23.35 27.01,31.72 12.73,11.58 -3.68,116.48 -3.68,116.48 0,0 12.22,26.08 -12.29,53.06 -17.44,19.2 -46.59,21.33 -96.36,29.15 -26.11,4.1 -65.69,11.41 -91.75,16.26 -31.15,5.79 -56.92,11.91 -78.9,-7.19 -17.11,-14.86 -24.47,-41.14 -15.26,-61.85 2.15,-4.86 5.28,-9.24 8.84,-13.2 6.3,-7 13.43,-12.52 22.41,-15.43 0,0 13.57,-12.05 60.8,-17.8 47.22,-5.75 120.79,1.11 130.85,2.48 13.69,1.87 16.61,-11.4 23.99,-47.66 6.48,-31.83 11.87,-85.78 24.34,-86.02" /><path
         id="path130"
         style="fill:#1f2a31;fill-opacity:1;fill-rule:nonzero;stroke:none"
         d="m 3944.24,3310.16 44.63,23.95 c -6.33,12.79 -21.46,17.8 -33.78,11.18 -12.33,-6.62 -17.19,-22.35 -10.85,-35.13" /><path
         id="path132"
         style="fill:#f57585;fill-opacity:1;fill-rule:nonzero;stroke:none"
         d="m 3784.66,3027.78 c 0,0 66.19,13.34 89.32,25.64 15.49,8.23 28.25,22.5 31.99,31.64 0,0 -4.34,-19.63 -18.17,-37.32 -16.92,-21.64 -103.13,-37.56 -103.13,-37.56 l -0.01,17.6" /><path
         id="path134"
         style="fill:#1f2a31;fill-opacity:1;fill-rule:nonzero;stroke:none"
         d="m 3800.57,3199.08 c 0,-7.62 5.93,-13.77 13.26,-13.75 7.33,0.02 13.27,6.21 13.27,13.82 0,7.61 -5.94,13.76 -13.27,13.74 -7.33,-0.02 -13.26,-6.21 -13.26,-13.81" /><path
         id="path136"
         style="fill:#1f2a31;fill-opacity:1;fill-rule:nonzero;stroke:none"
         d="m 3814.64,3249.15 28.37,-15.66 c 4.19,8.15 1.22,18.27 -6.61,22.59 -7.84,4.33 -17.58,1.22 -21.76,-6.93" /><path
         id="path138"
         style="fill:#f57585;fill-opacity:1;fill-rule:nonzero;stroke:none"
         d="m 3790.65,3107.46 -30.27,-11.36 c 3,-8.68 12.2,-13.17 20.57,-10.03 8.36,3.13 12.7,12.71 9.7,21.39" /><path
         id="path140"
         style="fill:#1f2a31;fill-opacity:1;fill-rule:nonzero;stroke:none"
         d="m 3682.29,3238.11 25.88,19.93 c -5.28,7.41 -15.35,8.95 -22.49,3.45 -7.14,-5.5 -8.66,-15.97 -3.39,-23.38" /><path
         id="path142"
         style="fill:#1f2a31;fill-opacity:1;fill-rule:nonzero;stroke:none"
         d="m 3690.26,3202.85 c 0,-7.6 5.94,-13.76 13.27,-13.74 7.32,0.02 13.26,6.21 13.26,13.82 0,7.61 -5.94,13.76 -13.26,13.74 -7.33,-0.02 -13.27,-6.21 -13.27,-13.82" /><path
         id="path144"
         style="fill:#f57585;fill-opacity:1;fill-rule:nonzero;stroke:none"
         d="m 3757.83,3215.43 -4.35,-79.76 -41.64,14.2 z" /><path
         id="path146"
         style="fill:#1f2a31;fill-opacity:1;fill-rule:nonzero;stroke:none"
         d="m 3955.84,1061.9 v 12.55 c -8.39,-3.65 -27.9,-78.079 -62.71,-109.841 -27.68,-25.238 -65.44,-54.398 -75.04,-82.55 -9.99,-29.27 52.57,-45.43 78.43,-40.848 30.05,5.32 82.12,26.48 95.2,46.09 13.07,19.597 19.2,48.539 29.81,62.918 10.63,14.371 35.12,30.422 40.86,47.051 3.16,9.14 -0.59,29.15 -5.03,46.07 -4.06,15.51 -8.47,32.57 -13.77,31.11 -0.02,-1.89 0,-9.57 0,-9.57 -6.36,-7.05 -23.99,-14.06 -43.86,-14.82 -12.85,-0.5 -43.99,2.05 -43.89,11.84" /><path
         id="path148"
         style="fill:#1f2a31;fill-opacity:1;fill-rule:nonzero;stroke:none"
         d="m 3650.72,1200.86 c -4.55,-0.16 -8.26,-6.58 -18.31,-17.46 -12.15,-13.15 -32.01,-27.33 -51.62,-37.14 -32.86,-16.45 -96.74,-41.75 -125.64,-54.78 -18.07,-8.13 -17.22,-29.95 1.45,-42.36 18.67,-12.42 63.74,-21.37 117.86,-9.26 29.49,6.6 67.87,33.83 92.17,32.36 24.29,-1.47 69.75,-1.12 87.68,11.24 17.94,12.36 10.76,38.76 5.69,61.44 -5.53,24.75 -12.45,63.36 -20.64,61.67 v -8.53 c -10.55,-15.98 -64.99,-22.48 -88.17,-10.72 l -0.47,13.54" /><path
         id="path150"
         style="fill:#1f2a31;fill-opacity:1;fill-rule:nonzero;stroke:none"
         d="m 3819.49,2135.42 c 0,0 -70.13,19.76 -122.2,70.06 0,0 23.58,-44.14 93.7,-85.23 l -14.99,-309.62 43.49,324.79" /><path
         id="path152"
         style="fill:#f68c9c;fill-opacity:1;fill-rule:nonzero;stroke:none"
         d="m 3886.6,2406.46 c 39.93,20.64 53.92,28.02 72.05,80.1 130.4,374.43 87.02,423.38 22.28,446.64 l -48.9,-99.24 -86.72,-310.73 c -57.73,-49.22 -177.57,-106.45 -243.38,-120.84 -11.66,-2.55 -34.46,0.85 -45.71,4.8 -28.55,10.04 -43.07,8.12 -71.64,15.79 v -33.36 c 0,0 -33.35,0.65 -77.01,8.79 -59.18,11.03 -80.37,-8.62 -31.75,-68.11 27.49,-33.62 81.43,-46.62 160.12,-38.27 32.12,3.4 80.21,17.87 118.98,31 100.95,34.17 179.01,56.19 231.68,83.43" /><path
         id="path154"
         style="fill:#5fc8ab;fill-opacity:1;fill-rule:nonzero;stroke:none"
         d="m 3985.69,2952.74 c 44.91,-12.24 75.43,-51.24 70.31,-122.97 -4.61,-64.41 -30.76,-156.2 -44.87,-221.54 0,0 -83.26,-1.03 -138.25,42.39 13.71,57.84 27.03,118.19 37.27,170.46 19.36,69.34 49.16,133.75 75.54,131.66" /><path
         id="path156"
         style="fill:#58c5a5;fill-opacity:1;fill-rule:nonzero;stroke:none"
         d="m 4010.63,2608.23 c -1.4,0 -5.67,0.03 -12.02,0.43 -24.02,1.49 -77.82,8.08 -119.12,37.04 -2.24,1.57 -4.45,3.21 -6.61,4.92 13.71,57.84 27.03,118.19 37.27,170.46 19.06,68.24 48.22,131.71 74.29,131.71 0.42,0 0.84,-0.01 1.25,-0.05 41.57,-11.33 70.82,-45.6 70.87,-107.54 0,-4.97 -0.18,-10.11 -0.56,-15.43 -4.61,-64.41 -30.76,-156.2 -44.87,-221.54 0,0 -0.17,0 -0.5,0" /><path
         id="path158"
         style="fill:#f2f2f0;fill-opacity:1;fill-rule:nonzero;stroke:none"
         d="m 1391.84,3913.21 -119.57,-69.03 c 0.59,5.34 1.01,10.64 1.01,15.82 v 34.64 c 0,61.65 -43.28,86.63 -96.67,55.81 -21.62,-12.48 -41.51,-32.25 -57.61,-55.4 -8.74,77.52 -69.56,106.39 -143.426,63.74 -79.867,-46.1 -144.613,-158.25 -144.613,-250.47 v -51.82 c 0,-23.89 4.422,-44.01 12.242,-60.04 l -99.316,-57.34 c -29.614,-17.1 -53.617,-58.68 -53.617,-92.87 0,-34.2 24.003,-48.05 53.617,-30.96 l 647.953,374.1 c 29.61,17.09 53.62,58.67 53.62,92.87 0,34.19 -24.01,48.05 -53.62,30.95" /></g></g></svg>