<?xml version="1.0" encoding="utf-8"?>
<!-- Generator: Adobe Illustrator 23.0.6, SVG Export Plug-In . SVG Version: 6.00 Build 0)  -->
<svg version="1.1" id="Layer_1" xmlns="http://www.w3.org/2000/svg" xmlns:xlink="http://www.w3.org/1999/xlink" x="0px" y="0px"
	 viewBox="0 0 1600 1200" style="enable-background:new 0 0 1600 1200;" xml:space="preserve">
<style type="text/css">
	.st0{fill:#F6F8FA;}
	.st1{fill:#828F99;}
	.st2{fill:#FDFCFF;}
	.st3{fill:#D8DFE5;}
	.st4{fill:#455A64;}
	.st5{fill:#252F35;}
	.st6{fill:#8A006C;}
	.st7{fill:#DADEEA;}
	.st8{fill:#323C4E;}
	.st9{fill:#272630;}
	.st10{fill:#A6A5B7;}
	.st11{fill:#9C9CA0;}
	.st12{fill:#625BA3;}
	.st13{fill:#6797C1;}
	.st14{fill:#13458E;}
	.st15{fill:#81A3CC;}
	.st16{fill:#6D8EAF;}
	.st17{fill:#321254;}
	.st18{fill:#2E3C47;}
	.st19{fill:#808B93;}
	.st20{fill:#D9DBDD;}
	.st21{fill:#ECEFF1;}
	.st22{fill:#6D7277;}
</style>
<path class="st0" d="M702.8,882.2c-41.4,0-95.1,0-95.1,0L456,917.5h-10.5l-134.4,39.6l180.6,134.4l274.7,11l301.4-15.4l193.7-94.7
	l-63.9-110.1l-232.9-11L702.8,882.2z"/>
<path class="st1" d="M1263.4,857.1"/>
<polygon class="st2" points="669.3,391.1 669.3,554.1 739,581.7 804.9,581.7 804.9,388.3 669.3,388.3 "/>
<polygon class="st0" points="669.3,388.3 758.2,389.1 759.6,581.7 669.3,581.7 "/>
<path class="st0" d="M1117,413.6c0,0-21.3-4.6-31.6-15.7s-14.9-9.5-14.9-9.5l-93.6-0.1l-1.8,165.7h64.4l0,0l-12.8,31.3l31-0.4h59.2
	V413.6z"/>
<polygon class="st0" points="817,388.2 820.6,581.7 959.4,577.6 959.4,386 "/>
<line class="st3" x1="951.2" y1="409.7" x2="944.9" y2="409.7"/>
<path class="st4" d="M956.9,459.4c-3.4,14.7-5,20-5,20l5,2.4l-2.4,14.2v6.4l14.2,2.4H984l13.3-6.9l6.4-20l5-3.4v-9.3l-5-2.9
	l-8.8,8.8v-6.9l-3.8-8.3l1-2.4h-6.4h-7.8l-8.3-3.4c0,0-7.4-3.8-9.3,0C957.9,454.2,956.9,459.4,956.9,459.4z"/>
<path class="st5" d="M956.3,458.6c-3-2.1-4.5-0.5-4.6-2.2c-0.3-1.8,2.7-0.5,0-2.2c-2.7-1.8,1.4-1.4-2.7-1.8c-4.2-0.3-4,1.4-4-2.9
	c0.2-4.3,8.3-9.1,8.3-9.1l-0.2-9.4c0,0,4.2-7,8.5-5.8c4.3,1.3,4.6-2.1,8,2.6c3.4,4.6-2.6,2.4,3.4,1.6c5.9-0.8,0.3-1.8,2.2-2.9
	c1.9-1.3-0.8-6.1,8-5.6c8.8,0.5,16.2,1.4,13,3.7c-3.2,2.2-3.7,5.1-3.7,5.1l4.5-0.8c0,0,1.4,1.8,3.4,3.4c1.9,1.8-0.3-1,4.3,0.5
	c4.5,1.4,3.4,0.8,5.4,2.2c1.9,1.3,1.8,0.5,1.8,4.6c0.2,4.2,1.8,6.2,1.8,6.2s-0.5,1,1.9,2.4c2.4,1.4,1.8-0.8,3.5,2.9s0,22.3,0,22.3
	l-4.2,4.5l-7,4.3l-5,3.5l-2.7,8.8l3.2-16.8l4-3.8l0.3-8l-5-2.9l-8.8,8.8v-6.9l-3.8-8.3l1-2.4h-8.8h-5.3l-8.3-3.4l-7-1.8l-2.2,1.8
	L956.3,458.6z"/>
<path class="st6" d="M968.6,507.8c-1.1,8.6-1.1,8.6-1.1,8.6l-7.4,4.8h-5l-3,9.3l-1.3,8.6l6.2,6.4h10.6h8.6l6.6-3.5l12.3-9l4-6.4
	l5.8-3.5l1.3-0.5l-5.8-7l-3-7.8l0.2-7.7l-0.3-1.8l-28.7,7.7L968.6,507.8z"/>
<path class="st4" d="M956.1,459.8c-3.4,14.7-5,20-5,20l5,2.4l-2.4,14.2v6.4l14.2,2.4h15.2l13.3-6.9l6.4-20l5-3.4v-9.3l-5-2.9
	l-8.8,8.8v-6.9l-3.8-8.3l1-2.4h-6.4h-7.8l-8.3-3.4c0,0-7.4-3.8-9.3,0C957.1,454.5,956.1,459.8,956.1,459.8z"/>
<path class="st4" d="M967.3,505.7c-1.1,8.6-1.1,8.6-1.1,8.6l-7.4,4.8h-5l-3,9.3l-1.3,8.6l6.2,6.4h10.6h8.6l6.6-3.5l12.3-9l4-6.4
	l5.8-3.5l1.3-0.5l-5.8-7l-3-7.8l0.2-7.7l-0.3-1.8l-28.7,7.7L967.3,505.7z"/>
<path class="st7" d="M944.1,521.9c-10.2,2.4-10.2,2.4-10.2,2.4l-17.5,7.5l-15.8,17.8l-7.5,17.1l24.7,2.7l2.9-13.8l-6.1,33.8
	l-4.5,21.8l-1.6,3l35.5,0.8c0,0,30.1-10.6,42.6-34.6c12.5-23.9,16.8-28.8,16.8-28.8l-9.1,17.9l27.7,2.6l22.1,10.4h3.5
	c0,0,5.6-30.9,1.1-37.8c-4.5-7-14.7-15.2-14.7-15.2l-17.5-7.8l-11.2-1.3l-11.2,9l-15,11.8l-3.8,2.1h-11.5H956l-5.1-5.3l-1.1-3
	l4.2-15.4L944.1,521.9z"/>
<path class="st4" d="M1040.2,583.8c-11,15.7-29.1,37.5-31.5,36.2c-2.4-1.3-21.6,20.8-29.8,20.8c-8.2,0-29.8,0-29.8,0l-43.9-7.4
	l-29.8-5l-26.6,1.3l-7.5,6.6l-23.7,0.3l8.8-17.5l7.4-3.7c0,0-3.4-2.1-2.7-3.2c0.8-1.1,6.6,0,6.6,0l3.7,3.2l5.9-3.2h11.5l59.2,3.2
	H944l32.3-16.3l19.4-27.2l13,1l18.9,4.2L1040.2,583.8z"/>
<polygon class="st8" points="903,570.7 895,602.2 886.8,612.5 908.9,613.5 916.3,570.7 906,568.8 903.5,568.8 "/>
<polygon class="st8" points="898.2,641.6 877.2,641.6 855.6,636 849.3,636 845.2,636 848.7,630.7 858.5,630.7 872.4,630.1 
	874.8,630.1 876.4,630.1 900.1,634.3 902.2,634.4 902.7,635.1 "/>
<path class="st8" d="M822.1,620.7c-11,2.9-11,2.9-11,2.9l-9.1,5l-5.9,6.9h19.5l8.3-14.7L822.1,620.7L822.1,620.7z"/>
<polygon class="st8" points="631.1,648.5 773.5,648.5 730.9,554.1 592.9,554.1 594.6,559.8 603.6,581.4 "/>
<path class="st8" d="M779.5,647.9h74c0,0,3.4-1.8,2.7-5.3c-0.6-3.4-1.6-5.3-2.9-5.3c-1.3,0-76.2,0-76.2,0h-2.2L779.5,647.9z"/>
<polyline class="st9" points="733.1,554.4 737,554.4 778.1,648 774.4,648 "/>
<path class="st10" d="M469.1,650.4h695.5c0,0,7.7-0.6,7.5,2.9c-0.2,3.4-0.6,5.3-0.6,5.3s-2.7,0.5-5.8,0.5s-696.7,0-696.7,0
	s-5.8-0.8-5.9-3s1-4.2,1-4.2l3.4-1.4L469.1,650.4z"/>
<rect x="518.6" y="661.6" class="st11" width="594" height="20.7"/>
<path class="st12" d="M1061.3,565.1c0,0,4.6,0.2,6.1,1.8c1.4,1.6,4.8,4.6,5.1,6.1s2.1,3.5,2.2,8c0.2,4.6,0,25.1,0,25.1
	s-3.8,17.6-5,20.5c-1.1,2.9-8.6,19.9-8.5,20.8c0.2,0.8-58.1,0-58.1,0s-1.4-6.2,0-10.1c1.4-3.8,1-12.6,4.6-14.2
	c3.7-1.6,19.5-16.7,24.2-22.7c4.6-6.1,10.2-13.9,10.2-13.9l8.8-1.1l3.5-20.2L1061.3,565.1L1061.3,565.1z"/>
<path class="st12" d="M997.8,683.4l-2.9,8.5c0,0,30.9,1.6,37.5-1c6.6-2.6,12.3-7.5,12.3-7.5H997.8z"/>
<path class="st13" d="M788,684.9c-3.8,19.4,0,34.6,0,34.6s11.7-14.7,23.2-21.6c11.5-6.9,22.7-13,22.7-13"/>
<path class="st7" d="M903.6,635.9l-8.5,14.6h100.5l6.7-22.6c0,0-4.6,5.4-11.2,9.4c-6.6,4-6.6,4-6.6,4s-2.9,2.9-10.2,2.7
	c-7.4-0.3-23.5-1.4-23.5-1.4L903.6,635.9z"/>
<path class="st14" d="M852.6,728.9c0,0-11.2,6.1-22.7,13c-11.5,6.9-23.2,21.6-23.2,21.6s-3.8-15.2,0-34.6"/>
<path class="st15" d="M961.3,684.9c0,0,12.6,5.9,16.3,11s8.8,10.6,7,13.3c-1.8,2.7-11.5,12.5-11.5,12.5s-7.2,7.8-15,9.6
	c-7.8,1.8-28.8,3.8-37.9,3.2c-9.1-0.8-38.4-1.3-49.6,4.2c-11.2,5.4-46.7,25.9-52.2,31.4c-5.4,5.4-22.1,25.5-28.8,34.3
	s-15.2,22.3-15.2,22.3l-35.2-8.6c0,0,16.3-44,20.5-50.6s25-42.1,32.2-50c7.4-7.8,25.8-23.4,36-27.9c10.2-4.5,9.3-3.2,9.3-3.2
	L961.3,684.9z"/>
<path class="st13" d="M811.6,777.4l25.8,48.2c0,0,10.6-4.5,17.6-6.7c7-2.2,14.7-2.6,14.7-2.6s-5.4-20-6.6-28.3
	c-1.1-8.5-2.2-4.5-2.7-17.5c-0.5-12.8-1-18.9-1-18.9l-0.3-5l-1-3.4c0,0-26.4,15.4-26.9,15.7c-0.5,0.3-5.6,3.4-8.8,5.8
	c-3.2,2.4-8.2,7-8.2,7l-2.9,3.4"/>
<path class="st16" d="M729,821.3c-4,12.5-3.7,19.9-3.7,19.9l10.2,4l23.9,4.5h8.5l7-9.6c0,0,0-5.9,0-7.7c0-1.8-11.5-5.4-11.5-5.4
	l-18.6-5.6l-8.5-1.8L729,821.3z"/>
<path class="st16" d="M856.9,823.2l-13.9,4.3l-9.1,2.6c0,0-1.3,8,0,10.9c1.3,2.9,1.3,2.7,1.3,2.7l2.2,5.1l27.2-5
	c0,0,13.6-2.9,14.6-4c1-1.1,1-1.1,1-1.1v-1c0,0,2.2-4,1.1-8.6c-1.1-4.6-4.5-9.1-4.5-9.1L856.9,823.2z"/>
<path class="st12" d="M981.3,717.8l34.4,2.6c0,0,8,11,8.8,20.2c0.8,9.1-5.9,19.5-5.9,19.5l-21.3,7.7h-95.7c0,0-19.5-1.4-24.7-4.8
	S863,745.9,863,745.9l1.8-3l28.2-6.6l41.3,0.3l20.5-3.4l12.5-4L981.3,717.8z"/>
<path class="st17" d="M1000.8,693.5h10.6c0,0-0.3,6.7-5.3,13.8c-5,7-7.7,9.4-7.7,9.4h-13.3c0,0,10.2-13.3,11.2-14.6
	C997.3,700.7,1000.8,693.5,1000.8,693.5z"/>
<path class="st1" d="M730.4,846.1c0,0,7.8,2.9,13.9,4.8c6.1,1.8,14.4,1.6,14.4,1.6l-6.7,21.6c0,0-3.4,1.9-7.5,1.4
	c-4.2-0.5-13.3-1.4-14.2-3.4c-1-1.9-3-2.9-3-2.9l-3.5,1l-2.4-3.2L730.4,846.1z"/>
<path class="st18" d="M718.6,868.6c0,0-3.2,12.5-9.8,16.3s-6.6,3.8-6.6,3.8s-8,5-20.3,7.4c-12.2,2.4-16.8,4.2-17.5,6.9
	c-0.5,2.7-0.5,2.7-0.5,2.7l27.2-0.3l52.2,0.3h8.8c0,0,3.4-7.5,3.4-12s0.6-9.1-1.8-13.1c-2.4-4-10.1-2.7-13.6-2.6
	c-3.4,0.2-9.1-2.4-9.3-3c-0.3-0.6-3.4-3.4-3.4-3.4l-4-0.2l-3.2-1.4L718.6,868.6z"/>
<path class="st19" d="M845.2,850.2l5.9,14.7c0,0,5.3,3.4,5.1,4.5c-0.2,1,0,2.2,0,2.2H874l4.6-1.3v-5.1l-3.8-16.3l-1.9-4.5
	L845.2,850.2z"/>
<path class="st18" d="M848.1,870.1c0,0-7.7,13.8-12.3,16.8c-4.6,3.2-12,7-19.4,9.1c-7.4,1.9-17.9,3.2-17.9,3.2s-4.5,1.3-4.2,3.7
	c0.3,2.4,0,3.7,0,3.7h97.3c0,0,1-13.4-1-18.3c-1.9-4.8-2.9-9-5.6-11.4c-2.7-2.4-5.1-4.5-5.1-4.5s-3.8,1.4-6.4,3.2
	c-2.4,1.9-10.6,1.1-10.6,1.1l-5.4-2.9l-4.6-0.3l-1.4-3.7h-3.4V870.1z"/>
<path class="st1" d="M1315.2,937.5"/>
<path class="st18" d="M896.6,769.4c0,0,29.6,1.9,43.1,2.4s32-2.4,32-2.4v5c0,0-2.9,8.3-7.4,8c-4.5-0.3-30.3,0-30.3,0h-25.6
	c0,0-5.9-2.2-7.8-3.7C898.8,777.2,896.6,769.4,896.6,769.4z"/>
<rect x="927.5" y="785.9" class="st3" width="10.1" height="52.4"/>
<path class="st3" d="M920.9,857.9h0.6h21.9h1.3v-13c0,0-0.5-3.8-4.5-4.3c-4-0.5-13.3-0.8-13.3-0.8s-3.2,0-5,1.1
	c-1.8,1.1-1.8,9-1.8,9v8"/>
<path class="st3" d="M883.1,867c0,0,12.8-3.7,17.9-4.2c5.1-0.5,11.5-1,15.2-1.1c3.7-0.3,4,0.2,4.2,0c0.2-0.2,0.2-0.2,0.2-0.2l0,0
	h26.9c0,0,11-0.2,11.4,0c0.3,0.2,0.3,0.2,0.3,0.2l0,0c0,0,14.9,1.4,24.7,4.8c9.8,3.5,19.2,10.2,19.2,10.2l2.1,1v1.1h-12.6
	c0,0-4-2.1-8-3c-4-1.1-9.4-1.9-10.6-1.9c-1.1,0-1.1,0-1.1,0l0,0l-26.6-0.5l-33.1-0.5h-15.5c0,0-5.1,0.5-6.9,1.6
	c-1.8,1.1-2.1,0.6-2.1,0.6l-6.4-6.2l-0.8-0.5L883.1,867z"/>
<path class="st3" d="M922,875.7c0,0,4.5,10.2,8.6,10.6c4.3,0.3,7.2,0.3,9.9-2.9c2.7-3.2,4.8-6.1,5.3-7c0.5-1,0.5-1,0.5-1l-24.3-0.8
	v0.5V875.7z"/>
<path class="st3" d="M925.7,881.9c-2.1,0.2-2.1,0.2-2.1,0.2l-1.3,1.1v9.3c0,0,0.8,2.2,3.4,2.2c2.6-0.2,15.5,0,15.5,0
	s3.4-0.6,3.7-1.6c0.3-1,0-8.2,0-8.2v-3.5l-5.3,0.5c0,0-1.9,0.5-2.6,1.1s-2.2,1.4-3,1.4c-0.6,0.2-5.4,0.5-6.7-0.8
	c-1.3-1.3-1.4-1.3-1.4-1.3L925.7,881.9z"/>
<path class="st3" d="M924,896.2h16.8c0,0,0.8,3.2-0.3,4.5c-1.1,1.3-1.6,1.6-1.6,1.6c-0.3,0.3-4.3,1.9-5.9,1.9s-1.6,0-1.6,0
	s-5.8-1.3-6.4-3.2C924.4,898.9,924,896.2,924,896.2z"/>
<circle class="st3" cx="1002.1" cy="895.1" r="12.6"/>
<path class="st1" d="M1140.6,767.8"/>
<path class="st1" d="M630.2,776"/>
<path class="st1" d="M664.4,785.9"/>
<rect x="1049.9" y="684.9" class="st1" width="6.6" height="231"/>
<rect x="576.7" y="684.9" class="st1" width="6.6" height="231"/>
<path class="st7" d="M964.5,684.9c0,0,8.8,2.4,12.7,7.5c3.9,5.1,7.9,11.2,7.9,11.2l0.9,1.5l4.6-20.3H964.5z"/>
<path class="st0" d="M346.8,586.5H502v-170c0,0-34.1,14.8-55.1,28.3c-20.9,13.5-20.9,13.5-20.9,13.5s-35.2,9.2-49.6,28.3
	c-14.3,19.1-30.8,66.1-29.7,80.6c1.1,14.5-0.1,26.8-0.1,26.8"/>
<path class="st2" d="M515.4,413.6c0,0,21.3-4.6,31.6-15.7s14.9-9.5,14.9-9.5l93.6-0.1l1.8,165.7h-64.4l0,0l12.8,31.3l-31-0.4h-59.2
	V413.6z"/>
<path class="st2" d="M569.4,373.8h87.9l3-155.7c0,0-11,10.5-14.3,17.6c-3,6.3-4.4,7.5-4.4,7.5s-18.3,37.9-23.7,47.9
	c-5.4,10-5.4,10-5.4,10s-21.3,42.1-24.7,46.3c-3.4,4.2-3.4,4.2-3.4,4.2s-9.3,17.1-12.7,19.6S569.4,373.8,569.4,373.8z"/>
<polygon class="st2" points="669.3,370.8 804.9,370.8 804.9,214.6 669.3,217.5 "/>
<path class="st2" d="M669.3,207.1h135.6v-70.1c0,0-90.3-5-104.7,14.1s-19.6,33.8-23.7,38.7C672.3,194.6,669.3,207.1,669.3,207.1z"/>
<path class="st3" d="M717,214.6"/>
<path class="st3" d="M1056.5,233.2"/>
<path class="st3" d="M811.1,322.8"/>
<path class="st3" d="M1011.4,188.1"/>
<polygon class="st2" points="817.4,216.8 817.4,372.5 959.4,372.5 959.4,213.4 "/>
<path class="st3" d="M1204.7,218.1"/>
<path class="st3" d="M1268.5,144"/>
<path class="st3" d="M1257.9,432.9"/>
<path class="st2" d="M1129.1,412.5l4,168.8l99.7,2.8c0,0-35.6-77.3-50-96S1129.1,412.5,1129.1,412.5z"/>
<path class="st3" d="M1353.3,470"/>
<path class="st2" d="M957.4,207.1H815v-70.1c0,0,90.3-5,104.7,14.1s19.6,33.8,23.7,38.7C947.6,194.6,957.4,207.1,957.4,207.1z"/>
<path class="st0" d="M1059.8,370.8h-87.9l-3-155.7c0,0,11,10.5,14.3,17.6c3,6.3,4.4,7.5,4.4,7.5s18.3,37.9,23.7,47.9
	c5.4,10,5.4,10,5.4,10s21.3,42.1,24.7,46.3s3.4,4.2,3.4,4.2s9.3,17.1,12.7,19.6C1061,370.6,1059.8,370.8,1059.8,370.8z"/>
<polygon class="st0" points="659.1,275.8 639,275.8 633.8,373.8 657.2,373.8 "/>
<polygon class="st0" points="633.8,388.4 630.2,554.4 657.2,554.1 655.5,388.3 "/>
<path class="st20" d="M1155.8,295.9"/>
<polygon class="st0" points="669.3,277.1 755.5,275.8 758.2,370.8 669.3,370.8 "/>
<path class="st21" d="M886.2,218.1"/>
<path class="st0" d="M498.7,465.5"/>
<polygon class="st0" points="896.6,233.2 817.7,275.8 957.4,277.7 "/>
<polygon class="st0" points="957.4,372.5 817.4,372.5 817.7,275.8 957.4,277.7 "/>
<g transform="translate(0.000000,250.000000) scale(0.100000,-0.100000)">
	<path class="st22" d="M6748-3430.9c-13-2.4-25.5-6.4-33.6-11.1c-13.1-7.3-24.2-20.9-28.9-35.4c-2.3-6.9-2.7-9.5-2.7-20.4
		c-0.1-13.6,1.7-22.2,6.7-31.1c1.2-2.3,2.2-4.3,2.1-4.4c-0.2-0.2-2.1-1.2-4.3-2.3c-8.7-4.3-21.2-18.7-26.2-30.2
		c-1.1-2.3-2.4-7.3-3.1-11.1c-3.5-20.4,8.5-40.8,33.4-57.1c9.2-6.1,8.9-6.1,60.8-6.3l47.4-0.3l-0.3,4.1l-0.3,4.1l-45.7,0.1
		c-44.5,0.1-45.8,0.2-50.9,2.2c-7.5,3.1-13.1,7.1-21.8,16.1c-5.5,5.6-8.8,9.9-11.1,14.5c-3,6-3.3,7.3-3.3,15.7
		c0,8.7,0.2,9.5,3.7,16.6c6.6,13.3,20.1,25.8,29.5,27.2c3.9,0.7,4.3,1.2,2.9,4c-2.9,5.3-8.7,18.6-10.2,23
		c-3.3,10.3-1.7,26.9,3.5,38.5c4.3,9.5,13.5,19.5,22.8,25c10,5.9,26.7,10.4,43.1,11.5c23.8,1.6,46.6-13.6,55.7-37.2
		c1.4-3.7,2.8-6.7,3.1-6.7c0.3,0,2.8,0.7,5.7,1.5c4.7,1.3,5.6,1.3,11-0.2c4-1.2,6.9-2.7,9.5-5.2c3.6-3.5,7-9,6.2-9.9
		c-0.3-0.2-2.9,0.4-6,1.4c-12.8,4.2-30.6,4.5-43.9,0.8c-19-5.4-32.6-17.7-38.5-34.9c-3.9-11.7-4.1-32.3-0.4-44.5
		c3.2-10.4,6.3-15.8,13.4-22.6c11.9-11.5,26-16.5,46.1-16.5c17.8-0.1,31,4.1,43.1,13.7c12.1,9.6,17.9,22.6,19,42.9
		c1.2,20.7-4,35.9-16.6,48.2c-5,5-7,7.6-7,9.3c0,1.3-0.9,4.8-2,7.6c-4.4,11.7-15.6,19-28.8,19h-6.2l-1.2,3.4
		c-2,5.6-10.4,17.4-15.6,21.8C6791.1-3431.6,6771.6-3426.7,6748-3430.9z M6835.6-3510.2c10.6-3.2,19.5-12.2,23.1-23.4
		c2.5-7.9,2.4-28.4-0.1-35.8c-3.7-10.6-10.2-17.9-20-22.4c-1.9-0.9-4.1-1.6-5-1.6c-4.3,0-2.6,16.6,3.8,38.4c0.6,1.8,0.4,2.1-1.2,1.8
		c-1.2-0.2-2.2-1.7-2.9-4.1c-0.7-2.5-1.5-3.7-2.4-3.5c-3.7,1.1-5.3,0.5-6.6-2.5c-0.8-1.7-1.7-3.2-2.1-3.2c-0.4,0-2.2,1.9-4.2,4.3
		c-3.4,4.2-5.2,5.4-5.2,3.4c0-0.6,0.3-0.9,0.8-0.8c0.4,0.2,2.6-1.7,4.9-4.3c2.3-2.5,4.5-4.5,4.9-4.5c0.4,0,1.1,1.5,1.3,3.5
		c0.8,3.8,2.4,4.9,5.4,3.3c1.4-0.8,1.8-1.6,1.4-2.7c-1.5-3.8-3.5-19.4-3.1-24.4l0.5-5.6h-6.1c-6.7,0-7.2,0.5-7.2,6.6
		c0,4.6-1.6,13.6-3.6,19.5c-0.8,2.5-1.2,5.3-0.9,6.1c0.3,0.8,0,1.4-0.7,1.4c-0.7,0-1.7,1.3-2.3,2.9c-0.8,1.9-1.5,2.7-2.5,2.3
		c-1.2-0.4-1.1-1.4,0.8-6.4c4.1-11.2,5.5-16.5,6.1-23.9c0.2-4.1,0.2-7.5-0.1-7.5c-0.4,0-3,1.2-5.9,2.5c-6.3,3-14.3,11.1-16.9,17.2
		c-5.3,12.3-5.1,32.8,0.5,45.3c3.7,8.5,13.4,16.5,22.1,18.7C6817.6-3508.4,6830.6-3508.7,6835.6-3510.2z"/>
	<path class="st22" d="M6802-3616.1c-0.4-0.4-0.7-3-0.7-5.9v-5.1h19.7h19.8l-0.3,5.6l-0.3,5.5l-18.8,0.3
		C6811.1-3615.6,6802.4-3615.8,6802-3616.1z"/>
	<path class="st22" d="M6802-3632.5c-0.2-0.5-0.3-2.3-0.3-4.1l0.1-3.4l19.5-0.3l19.4-0.2v4.3v4.3h-19.1
		C6811-3631.8,6802.2-3632.1,6802-3632.5z"/>
</g>
</svg>
